<?xml version="1.0" encoding="UTF-8"?>
<svg xmlns="http://www.w3.org/2000/svg" xmlns:xlink="http://www.w3.org/1999/xlink" width="266" height="266" xml:space="preserve" overflow="hidden">
  <defs>
    <clipPath id="clip0">
      <rect x="2098" y="560" width="266" height="266"></rect>
    </clipPath>
  </defs>
  <g clip-path="url(#clip0)" transform="translate(-2098 -560)">
    <path d="M2098 693C2098 619.546 2157.55 560 2231 560 2304.45 560 2364 619.546 2364 693 2364 766.454 2304.45 826 2231 826 2157.55 826 2098 766.454 2098 693Z" fill="#EF7D00" fill-rule="evenodd"></path>
    <g>
      <g>
        <g>
          <path d="M121.5 18.225C64.4628 18.225 18.225 64.4628 18.225 121.5 18.225 178.537 64.4628 224.775 121.5 224.775 178.537 224.775 224.775 178.537 224.775 121.5 224.775 64.4628 178.537 18.225 121.5 18.225ZM57.0649 57.0649C65.3663 48.7405 75.2044 42.1066 86.0337 37.5311 87.7376 36.8104 89.4575 36.1441 91.1933 35.532 84.7278 43.6805 79.2331 54.361 75.1067 66.825L48.5869 66.825C51.1804 63.3768 54.0133 60.1153 57.0649 57.0649ZM37.5311 86.0337C38.5503 83.6243 39.6681 81.2714 40.8845 78.975L71.6607 78.975C68.9724 90.1989 67.3166 102.493 66.9193 115.425L30.5738 115.425C31.2255 105.307 33.5775 95.3705 37.5311 86.0337ZM40.8855 164.025C39.6727 161.727 38.5549 159.374 37.5321 156.966L37.5321 156.966C33.578 147.63 31.2257 137.694 30.5738 127.575L66.919 127.575C67.3164 140.507 68.9722 152.801 71.6605 164.025L40.8855 164.025ZM86.0349 205.469C75.2056 200.893 65.3673 194.26 57.0659 185.935 54.014 182.885 51.1807 179.623 48.5869 176.175L75.1072 176.175C79.2331 188.639 84.7278 199.32 91.1938 207.468 89.4583 206.856 87.7383 206.19 86.0339 205.469ZM115.425 211.547C112.875 210.646 110.327 209.184 107.802 207.167 102.675 203.07 97.7545 196.733 93.5771 188.842 91.4278 184.75 89.555 180.518 87.9716 176.175L115.425 176.175 115.425 211.547ZM115.425 164.025 84.1864 164.025C83.7611 162.392 83.3582 160.731 82.978 159.044 80.6969 148.699 79.3908 138.163 79.0771 127.575L115.425 127.575 115.425 164.025ZM115.425 115.425 79.0771 115.425C79.3908 104.837 80.6969 94.301 82.978 83.9565 83.3563 82.2674 83.759 80.6068 84.1864 78.975L115.425 78.975 115.425 115.425ZM115.425 66.825 87.9716 66.825C89.555 62.4824 91.4278 58.2505 93.5771 54.1584 97.7545 46.2672 102.674 39.9305 107.802 35.8333 110.327 33.8164 112.875 32.3542 115.425 31.4537L115.425 66.825ZM141.244 163.904C137.05 163.904 133.65 160.504 133.65 156.31L133.65 109.289 143.775 109.289 143.775 98.0911C143.775 86.9073 152.841 77.8412 164.025 77.8412 175.209 77.8412 184.275 86.9073 184.275 98.0911L184.275 109.289 186.806 109.289C191 109.289 194.4 112.689 194.4 116.883L194.4 163.904 141.244 163.904ZM164.025 85.4347C157.035 85.4347 151.369 91.101 151.369 98.0908 151.369 98.0908 151.369 98.0911 151.369 98.0911L151.369 109.289 176.681 109.289 176.681 98.0911C176.681 91.1012 171.015 85.4349 164.025 85.4347 164.025 85.4347 164.025 85.4347 164.025 85.4347Z" fill="#FFFFFF" fill-rule="evenodd" transform="matrix(1 0 0 1.00412 2110 572)"></path>
        </g>
      </g>
    </g>
  </g>
</svg>
